<?xml version="1.0" encoding="UTF-8" standalone="no"?>
<svg
   xmlns:dc="http://purl.org/dc/elements/1.1/"
   xmlns:cc="http://creativecommons.org/ns#"
   xmlns:rdf="http://www.w3.org/1999/02/22-rdf-syntax-ns#"
   xmlns:svg="http://www.w3.org/2000/svg"
   xmlns="http://www.w3.org/2000/svg"
   xmlns:sodipodi="http://sodipodi.sourceforge.net/DTD/sodipodi-0.dtd"
   xmlns:inkscape="http://www.inkscape.org/namespaces/inkscape"
   width="10mm"
   height="10mm"
   viewBox="0 0 10 10"
   version="1.1"
   id="svg8"
   inkscape:version="1.0.1 (3bc2e813f5, 2020-09-07)"
   sodipodi:docname="cartImgf2.svg">
  <defs
     id="defs2" />
  <sodipodi:namedview
     id="base"
     pagecolor="#ffffff"
     bordercolor="#666666"
     borderopacity="1.0"
     inkscape:pageopacity="0.0"
     inkscape:pageshadow="2"
     inkscape:zoom="22.4"
     inkscape:cx="16.231485"
     inkscape:cy="18.733872"
     inkscape:document-units="mm"
     inkscape:current-layer="layer1"
     inkscape:document-rotation="0"
     showgrid="false"
     inkscape:window-width="1710"
     inkscape:window-height="1030"
     inkscape:window-x="182"
     inkscape:window-y="0"
     inkscape:window-maximized="0" />
  <metadata
     id="metadata5">
    <rdf:RDF>
      <cc:Work
         rdf:about="">
        <dc:format>image/svg+xml</dc:format>
        <dc:type
           rdf:resource="http://purl.org/dc/dcmitype/StillImage" />
        <dc:title />
      </cc:Work>
    </rdf:RDF>
  </metadata>
  <g
     inkscape:label="Слой 1"
     inkscape:groupmode="layer"
     id="layer1">
    <path
       style="fill:none;stroke:#000000;stroke-width:0.264583px;stroke-linecap:butt;stroke-linejoin:miter;stroke-opacity:1"
       d="m 3.5553386,1.1457403 1.4055989,0.035435 c 0,0 -0.1771763,1.641834 0.1417418,1.9607514 C 5.4215967,3.4608443 5.7050789,3.6970797 5.6932672,4.0750557 5.6814562,4.4530318 5.9059267,8.6813525 5.5515261,8.6225817 4.2285727,8.4031945 4.2388819,8.4340464 2.941128,8.563524 2.3786802,8.6196398 2.8541591,4.5612208 2.8702566,4.1104909 2.8820683,3.7797618 3.16671,3.4765687 3.425409,3.0946801 3.6734561,2.7285156 3.5553386,1.1457403 3.5553386,1.1457403 Z"
       id="path45"
       sodipodi:nodetypes="ccssssssc" />
    <path
       style="fill:none;stroke:#000000;stroke-width:0.221063px;stroke-linecap:butt;stroke-linejoin:miter;stroke-opacity:1"
       d="m 3.2998639,0.55008959 c 0.067339,0 1.885497,0.0303731 1.885497,0.0303731 V 1.0866813 L 3.3191037,1.0158107 Z"
       id="path47"
       inkscape:transform-center-x="-0.037765539"
       inkscape:transform-center-y="0.080543756" />
    <path
       style="fill:none;stroke:#000000;stroke-width:0.264583px;stroke-linecap:butt;stroke-linejoin:miter;stroke-opacity:1"
       d="M 0.08268229,0.09449405 9.8982513,0.07087053 9.9454985,9.969122 H 0.08268229 Z"
       id="path49" />
    <path
       style="fill:#b3b3b3;stroke-width:0.0446429"
       d="M 0.8520208,19.007581 V 0.86611147 L 18.845286,0.83269159 c 9.896296,-0.0183809 18.004913,-0.0217714 18.019151,-0.007534 0.02207,0.0220686 0.185558,29.64417041 0.191054,34.61630441 l 0.0019,1.707589 H 18.954699 0.8520208 Z M 21.339991,33.02119 c 0.499844,-0.258479 0.715952,-1.167156 0.85507,-3.595353 0.07526,-1.313518 0.0623,-6.180327 -0.02424,-9.107143 -0.04029,-1.362723 -0.09109,-3.160714 -0.11288,-3.995536 -0.04264,-1.633543 -0.06154,-1.773852 -0.313908,-2.330441 -0.223398,-0.492694 -0.581973,-0.950801 -1.407394,-1.798053 L 19.531085,11.367801 19.414352,11.010658 C 19.2452,10.493143 19.156682,9.8474743 19.115115,8.8279538 c -0.03857,-0.9459353 0.0059,-2.616817 0.09753,-3.6641425 l 0.05456,-0.6236326 0.390625,0.013581 0.390625,0.013581 V 3.1644329 1.7615245 L 18.162289,1.732302 C 17.1249,1.7162296 15.313874,1.6896778 14.137784,1.6732981 L 11.99944,1.6435171 12.02739,2.063695 c 0.01537,0.2310978 0.04121,0.8147612 0.05743,1.2970298 l 0.02949,0.8768519 0.161269,0.026675 c 0.0887,0.014671 0.264423,0.026896 0.390501,0.027166 l 0.22923,4.913e-4 0.02789,0.234375 c 0.01534,0.1289063 0.04772,0.8270089 0.07195,1.5513393 0.07591,2.269008 -0.0498,4.1280317 -0.338644,5.0082107 -0.04074,0.124144 -0.350235,0.604235 -0.761744,1.181623 -1.106008,1.551839 -1.401683,2.116182 -1.516768,2.894988 -0.120628,0.816326 -0.5693272,6.461262 -0.7150277,8.995536 -0.0952,1.655885 -0.1098817,5.022193 -0.025603,5.870535 0.1666401,1.677396 0.4539337,2.471315 0.9939907,2.746832 0.234906,0.11984 0.510048,0.114002 2.095675,-0.04447 3.136679,-0.313483 3.848392,-0.301337 6.517857,0.111232 0.552455,0.08538 1.094866,0.17311 1.205357,0.19495 0.323585,0.06396 0.750095,0.05635 0.889756,-0.01587 z"
       id="path51"
       transform="scale(0.26458333)" />
    <path
       style="fill:none;stroke:#000000;stroke-width:0.264583px;stroke-linecap:butt;stroke-linejoin:miter;stroke-opacity:1"
       d="M 5.2798548,3.3309152 H 3.4135975 c -0.067928,0.045843 -0.1355637,0.035435 -0.2126116,0.035435"
       id="path53" />
    <path
       style="fill:#b3b3b3;stroke-width:0.0446429"
       d="m 13.48252,11.803069 c 0.239708,-0.476469 0.38682,-1.110989 0.494228,-2.1316965 0.06945,-0.6600072 0.102565,-3.00314 0.05584,-3.9508929 -0.0224,-0.454241 -0.03521,-0.8330718 -0.02847,-0.8418461 0.01393,-0.01813 4.139716,0.086074 4.160551,0.1050825 0.0074,0.00679 -0.0078,0.2908569 -0.03397,0.6312535 -0.08363,1.0894376 -0.107083,2.7962405 -0.04992,3.6322959 0.08588,1.2561706 0.249615,2.0399116 0.538601,2.5781246 l 0.125844,0.234375 h -2.695921 -2.69592 z"
       id="path55"
       transform="scale(0.26458333)" />
    <path
       style="fill:#b3b3b3;stroke-width:0.0446429"
       d="m 16.008271,3.5311876 c -1.669643,-0.067791 -3.040737,-0.1252551 -3.046875,-0.1276969 -0.0061,-0.00244 -0.01116,-0.2069315 -0.01116,-0.4544215 V 2.4990873 l 0.279018,0.024813 c 0.15346,0.013647 1.34375,0.035672 2.645089,0.048945 1.30134,0.013273 2.571987,0.03624 2.823661,0.051037 l 0.457589,0.026905 V 3.158848 c 0,0.3800098 -0.01406,0.5064896 -0.0558,0.5018285 -0.03069,-0.00343 -1.421875,-0.061697 -3.091518,-0.1294889 z"
       id="path57"
       transform="scale(0.26458333)" />
    <path
       style="fill:#ffffff;stroke-width:0.0446429"
       d="m 19.825235,31.875762 c -1.66619,-0.275814 -2.427104,-0.357427 -3.571429,-0.383059 -1.18748,-0.0266 -1.691876,0.0018 -3.789069,0.213268 -0.989245,0.09975 -1.326434,0.119754 -1.372627,0.08142 -0.07188,-0.05966 -0.214815,-0.502461 -0.281849,-0.873162 -0.29503,-1.631512 -0.264743,-4.911879 0.08876,-9.613389 0.100632,-1.338387 0.421549,-5.167672 0.485152,-5.788989 0.06049,-0.5909 0.324578,-1.165582 0.922545,-2.00755 0.172175,-0.242432 0.216877,-0.278051 0.385652,-0.307296 0.104996,-0.01819 1.751834,-0.0408 3.659639,-0.05024 l 3.468737,-0.01716 0.325906,0.379359 c 0.409051,0.47614 0.641092,0.857306 0.748411,1.229384 0.08706,0.301845 0.116127,1.073023 0.275095,7.299107 0.05531,2.166113 0.02651,6.949107 -0.04757,7.901785 -0.05575,0.716948 -0.152265,1.500824 -0.226733,1.841518 -0.06154,0.281563 0.01519,0.274753 -1.070617,0.09502 z"
       id="path14"
       transform="scale(0.26458333)" />
  </g>
</svg>
