<?xml version="1.0" encoding="UTF-8" standalone="no"?>
<svg
   xmlns:dc="http://purl.org/dc/elements/1.1/"
   xmlns:cc="http://creativecommons.org/ns#"
   xmlns:rdf="http://www.w3.org/1999/02/22-rdf-syntax-ns#"
   xmlns:svg="http://www.w3.org/2000/svg"
   xmlns="http://www.w3.org/2000/svg"
   xmlns:sodipodi="http://sodipodi.sourceforge.net/DTD/sodipodi-0.dtd"
   xmlns:inkscape="http://www.inkscape.org/namespaces/inkscape"
   width="16"
   height="16"
   viewBox="0 0 4.2333332 4.2333332"
   version="1.1"
   id="svg8"
   inkscape:version="1.0.1 (3bc2e813f5, 2020-09-07)"
   sodipodi:docname="close.svg">
  <defs
     id="defs2" />
  <sodipodi:namedview
     id="base"
     pagecolor="#ffffff"
     bordercolor="#666666"
     borderopacity="1.0"
     inkscape:pageopacity="0.0"
     inkscape:pageshadow="2"
     inkscape:zoom="15.839192"
     inkscape:cx="23.169682"
     inkscape:cy="15.876472"
     inkscape:document-units="mm"
     inkscape:current-layer="layer1"
     inkscape:document-rotation="0"
     showgrid="false"
     units="px"
     inkscape:window-width="1710"
     inkscape:window-height="1030"
     inkscape:window-x="32"
     inkscape:window-y="0"
     inkscape:window-maximized="0" />
  <metadata
     id="metadata5">
    <rdf:RDF>
      <cc:Work
         rdf:about="">
        <dc:format>image/svg+xml</dc:format>
        <dc:type
           rdf:resource="http://purl.org/dc/dcmitype/StillImage" />
        <dc:title></dc:title>
      </cc:Work>
    </rdf:RDF>
  </metadata>
  <g
     inkscape:label="Слой 1"
     inkscape:groupmode="layer"
     id="layer1">
    <path
       style="fill:none;stroke:#000000;stroke-width:0.264583px;stroke-linecap:butt;stroke-linejoin:miter;stroke-opacity:1"
       d="M 0.78510423,0.83521726 1.2194172,0.33408691 c 0,0 2.9566692,3.57472989 2.6058778,3.32416469 C 3.4745038,3.4076864 0.78510423,0.83521726 0.78510423,0.83521726 Z"
       id="path10" />
    <path
       style="fill:#ff0000;stroke:#000000;stroke-width:0.264583px;stroke-linecap:butt;stroke-linejoin:miter;stroke-opacity:1"
       d="M 3.6749559,0.35079126 0.93544334,3.3074603 1.5535041,3.875408 Z"
       id="path12" />
    <path
       style="fill:#ff0000;stroke-width:0.0631345"
       d="M 5.3294652,4.6557864 C 4.4786759,3.8476408 3.7746605,3.1635005 3.7649866,3.1354747 3.7553127,3.1074489 3.9381782,2.8618696 4.1713544,2.5897429 L 4.5953111,2.094967 5.6388934,3.366746 C 6.2128636,4.0662245 6.8530199,4.8460924 7.0614629,5.0997859 L 7.4404501,5.5610468 7.1584025,5.8430944 6.8763549,6.1251421 Z"
       id="path14"
       transform="scale(0.26458333)" />
    <path
       style="fill:#ff0000;stroke-width:0.0631345"
       d=""
       id="path16"
       transform="scale(0.26458333)" />
    <path
       style="fill:#ff0000;stroke-width:0.0631345"
       d="M 7.3555735,6.579912 6.9028799,6.1537539 7.1845812,5.8793863 7.4662825,5.6050187 7.879009,6.1003571 8.2917355,6.5956956 8.0948286,6.8008828 c -0.1082987,0.112853 -0.2170791,0.2051873 -0.2417341,0.2051873 -0.024655,0 -0.2485395,-0.1917712 -0.497521,-0.4261581 z"
       id="path18"
       transform="scale(0.26458333)" />
    <path
       style="fill:#ff0000;stroke-width:0.0631345"
       d=""
       id="path20"
       transform="scale(0.26458333)" />
    <path
       style="fill:#ff0000;stroke-width:0.0631345"
       d="M 7.3881775,6.5483447 6.965541,6.1537539 7.2155469,5.9116061 7.4655528,5.6694583 7.8522337,6.1288351 8.2389145,6.5882119 8.0689912,6.7655737 c -0.093458,0.097549 -0.1897805,0.1773618 -0.2140503,0.1773618 -0.02427,0 -0.2343133,-0.1775658 -0.4667634,-0.3945908 z"
       id="path22"
       transform="scale(0.26458333)" />
    <path
       style="fill:#ff0000;stroke-width:0.0631345"
       d=""
       id="path24"
       transform="scale(0.26458333)" />
    <path
       style="fill:#ff0000;stroke-width:0.0631345"
       d="M 4.8245593,14.311874 C 4.2143924,13.748719 3.5282373,13.116721 3.2997701,12.907434 L 2.8843752,12.526913 5.0560595,10.192649 7.2277438,7.8583863 6.4230124,7.0846618 C 5.9804102,6.6591132 4.8790241,5.6079232 3.9754879,4.748684 L 2.3326946,3.1864307 3.468639,1.8760515 4.6045833,0.56567215 4.7417716,0.70806257 C 4.8172251,0.7863773 5.7956285,1.9726693 6.9160013,3.3442671 8.0363742,4.7158648 8.9739359,5.8465605 8.9994719,5.856924 9.0250079,5.8672875 10.047919,4.7947896 11.272607,3.4735953 12.497296,2.152401 13.519336,1.0714239 13.543809,1.0714239 c 0.05418,0 0.692336,0.503481 0.692336,0.5462288 0,0.016726 -0.799151,1.3562925 -1.775892,2.9768139 -0.97674,1.6205214 -1.804305,3.0087615 -1.839031,3.0849781 -0.05596,0.1228251 0.08696,0.3274435 1.257447,1.8002566 2.606587,3.2798417 3.11509,3.9905277 3.11509,4.3536607 0,0.219257 -0.02382,0.25336 -0.261702,0.37472 -0.205095,0.104632 -0.292719,0.119379 -0.405092,0.06818 -0.26366,-0.120133 -1.586245,-1.28981 -4.000302,-3.537815 C 9.3912577,9.8673846 9.3475566,9.8354221 9.2526976,9.9529521 9.1983122,10.020335 8.4437497,11.259948 7.575892,12.707648 6.7080344,14.155347 5.9835656,15.33892 5.9659614,15.33781 5.9483572,15.336699 5.4347263,14.875028 4.8245593,14.311874 Z M 8.4240234,9.5088973 C 9.8191697,7.1873464 10.948151,5.2753951 10.932872,5.2601161 10.911769,5.2390124 6.4385434,10.031168 4.4641564,12.190036 l -0.2661694,0.291039 0.7692868,0.70507 c 0.6128784,0.561717 0.7846202,0.68867 0.8447037,0.624411 0.041479,-0.04436 1.2168999,-1.980108 2.6120459,-4.3016587 z m 3.0342016,0.9348867 c 0,-0.03201 -1.180843,-1.5287712 -1.360788,-1.7248519 -0.06605,-0.07197 -0.09594,-0.056088 -0.1782212,0.094702 l -0.098865,0.181174 0.7715872,0.7391034 c 0.706505,0.6767625 0.866287,0.8076955 0.866287,0.7098725 z M 8.1576812,6.8345878 8.3716752,6.5754021 6.5213736,4.317935 C 5.5037077,3.076328 4.6427044,2.0535021 4.608033,2.0449884 4.5139163,2.0218776 3.6147027,3.079774 3.6625953,3.1572658 3.7620457,3.31818 7.8310665,7.1313138 7.8843689,7.1135459 7.916994,7.102671 8.0399845,6.9771399 8.1576812,6.8345878 Z"
       id="path26"
       transform="scale(0.26458333)" />
    <path
       style="fill:#550000;stroke-width:0.0631345"
       d="M 4.4494644,13.917198 C 3.6339058,13.169475 2.9726185,12.53734 2.9799369,12.512455 c 0.00732,-0.02489 0.9590716,-1.063666 2.1150069,-2.308399 1.1559353,-1.2447322 2.1017006,-2.2998593 2.1017006,-2.3447252 0,-0.070946 -0.860816,-0.9100237 -4.0798167,-3.9767862 L 2.3831412,3.1835568 3.4947294,1.8995951 4.6063176,0.61563331 4.8175487,0.85931222 C 4.9337258,0.99333561 5.9100912,2.175489 6.9872495,3.4863198 c 1.0771583,1.3108308 1.9774138,2.3833287 2.0005678,2.3833287 0.064562,0 1.1007487,-1.0700459 2.6900177,-2.7779196 0.791658,-0.8507378 1.533246,-1.6441261 1.647974,-1.763085 l 0.208597,-0.2162889 0.254745,0.1765384 c 0.14011,0.097096 0.287421,0.2159103 0.327358,0.2640314 0.05761,0.069414 -0.30291,0.7144024 -1.744672,3.1213317 l -1.817283,3.0338387 0.09865,0.2014149 c 0.05425,0.1107777 0.604385,0.8406515 1.222511,1.6219413 2.591412,3.2754536 3.058408,3.9295836 3.068902,4.2986706 0.0091,0.320081 -0.398334,0.53912 -0.681952,0.366622 C 14.04478,14.064228 12.547858,12.740702 10.953149,11.270591 10.171859,10.550344 9.484472,9.935258 9.4256218,9.9037318 9.2779665,9.8246331 9.234667,9.8881843 7.6575568,12.498775 c -1.4132306,2.33932 -1.68313,2.777919 -1.7094393,2.777919 -0.0087,0 -0.6830946,-0.611773 -1.4986531,-1.359496 z M 5.023448,13.140845 4.3023458,12.460665 7.4160644,9.1007874 C 9.1286098,7.2528548 10.541136,5.7522636 10.555013,5.7661402 10.56889,5.7800168 9.4978471,7.5879091 8.1749187,9.7836783 6.8519902,11.979448 5.7828875,13.78928 5.7991348,13.805527 5.841691,13.848084 6.0901792,13.44829 8.1417193,10.036528 10.173589,6.6574782 10.953149,5.3343447 10.953149,5.2647372 c 0,-0.085506 -0.266313,0.1890835 -2.4874672,2.5647682 -3.2254564,3.4498586 -4.2679277,4.5858246 -4.2679277,4.6506986 0,0.05726 0.8358232,0.838987 1.2517886,1.170776 0.4449145,0.35488 0.2738958,0.15013 -0.4260947,-0.510135 z m 6.410411,-2.76108 C 11.368159,10.208567 10.104227,8.6509974 10.029574,8.6492429 9.990382,8.6483212 9.922238,8.7346669 9.878143,8.841122 9.811699,9.0015324 9.81309,9.0487526 9.886263,9.1168829 c 0.048563,0.045215 0.394116,0.3700682 0.767894,0.7218973 0.64736,0.6093448 0.863469,0.7592898 0.779698,0.5409848 z M 8.1669829,6.8739319 C 8.3282976,6.6797005 8.3664421,6.5896655 8.3248192,6.5013812 8.2643958,6.37322 5.3355243,2.8072084 4.876192,2.3025473 L 4.5888731,1.9868746 4.4186408,2.1447109 C 4.1854517,2.3609198 3.6295433,3.063448 3.6295433,3.1419315 c 0,0.110522 4.1441842,3.9891285 4.261581,3.9884801 0.034724,-1.894e-4 0.1588604,-0.1156075 0.2758586,-0.2564797 z"
       id="path28"
       transform="scale(0.26458333)" />
    <path
       style="fill:#550000;stroke-width:0.0631345"
       d="M 5.4541327,4.7160864 C 4.6763145,3.9715334 3.9870684,3.302869 3.9224748,3.2301657 3.8063831,3.0994987 3.8095784,3.0924814 4.2002083,2.6202337 4.4175553,2.3574744 4.6008662,2.1500919 4.6075658,2.1593838 c 0.0067,0.00929 0.6037163,0.7413632 1.3267038,1.626825 0.7229875,0.8854619 1.3432355,1.6471959 1.3783287,1.6927423 0.04707,0.061091 -0.00282,0.1494399 -0.1902224,0.3368399 L 6.8683476,6.0698193 Z"
       id="path30"
       transform="scale(0.26458333)" />
    <path
       style="fill:#550000;stroke-width:0.0631345"
       d=""
       id="path32"
       transform="scale(0.26458333)" />
    <path
       style="fill:#550000;stroke-width:0.0631345"
       d="M 5.0739508,14.444388 C 3.654147,13.155723 3.0487786,12.559345 3.0798866,12.479938 3.0962327,12.438212 3.8413594,11.608578 4.7357236,10.636306 6.979171,8.1974326 7.230806,7.9070415 7.1908839,7.8030059 7.1632378,7.7309619 5.1465558,5.7749604 2.7890859,3.5336556 L 2.4221375,3.1847887 3.5028256,1.9371251 C 4.097204,1.2509101 4.6090017,0.70521391 4.6401537,0.72446689 4.6713056,0.74371987 5.6228533,1.8785004 6.754704,3.2462015 7.8865548,4.6139026 8.8555321,5.7685493 8.9079874,5.8120831 9.0281482,5.9118079 9.4738225,5.4781069 11.816975,2.9812435 12.73754,2.0002907 13.524126,1.1976929 13.564947,1.1976929 c 0.04082,0 0.181137,0.088132 0.311817,0.1958492 l 0.237598,0.195849 -0.291822,0.5397223 c -0.160503,0.2968472 -0.960802,1.6647553 -1.778442,3.0397958 -0.817642,1.3750404 -1.496941,2.518522 -1.509554,2.5410699 -0.03481,0.06223 0.560246,0.8701504 1.899577,2.5790869 2.270321,2.896844 2.588955,3.37711 2.447104,3.688438 -0.07906,0.173508 -0.310536,0.261111 -0.534595,0.202316 C 14.182992,14.13688 13.444704,13.498564 11.267113,11.517303 10.415436,10.742412 9.6367203,10.043997 9.5366357,9.9652703 L 9.354663,9.822131 9.1595375,10.051003 c -0.1073192,0.12588 -0.8591036,1.325191 -1.6706317,2.665136 -0.811528,1.339944 -1.49684,2.449448 -1.5229155,2.465563 -0.026075,0.01612 -0.4274933,-0.315676 -0.8920395,-0.737314 z m -0.026134,-1.307711 -0.696733,-0.685018 1.192758,-1.286483 C 8.8283609,7.6225617 10.288798,6.0681362 10.311428,6.090766 10.325151,6.1044883 9.3706537,7.7308166 8.1903249,9.704829 7.0099958,11.678842 5.9825343,13.420443 5.9070771,13.575055 L 5.7698822,13.856167 5.9203101,13.691263 C 6.0425467,13.557265 9.8729843,7.2287374 10.723383,5.7557805 11.190339,4.9469755 11.019651,5.0759424 9.5232303,6.6625824 6.2436329,10.139906 4.2315507,12.339561 4.2250464,12.454679 c -0.00235,0.04162 0.068675,0.157449 0.1578363,0.257409 0.2626712,0.294487 1.2128544,1.112638 1.2903599,1.111059 0.039219,-8.02e-4 -0.2422223,-0.309711 -0.6254258,-0.68647 z M 11.458106,10.399551 C 11.45798,10.328519 10.921216,9.6250957 10.314228,8.9005645 10.061835,8.5992966 9.9125785,8.5899343 9.842049,8.870948 c -0.047332,0.1885848 0.1377305,0.4053326 1.001016,1.172405 0.486948,0.432677 0.615269,0.506994 0.615041,0.356198 z M 8.1686895,6.9091714 C 8.2764586,6.7864292 8.3641049,6.6372739 8.363459,6.5777151 8.362323,6.4729619 6.9440785,4.7026411 5.3823883,2.8566 4.8029246,2.1716282 4.6001963,1.971138 4.5279335,2.0115784 4.3991195,2.0836663 3.7602179,2.835897 3.6752981,3.0154552 c -0.061605,0.1302597 -0.02793,0.1859201 0.3374971,0.5578504 0.475298,0.483756 2.7341397,2.608628 3.3708146,3.1708947 0.2417269,0.2134765 0.4731708,0.3881388 0.5143197,0.3881388 0.041149,0 0.1629909,-0.1004255 0.27076,-0.2231677 z"
       id="path34"
       transform="scale(0.26458333)" />
    <path
       style="fill:#550000;stroke-width:0.0631345"
       d="M 7.3823501,6.5483447 6.9671253,6.1537539 7.216339,5.9116061 7.4655528,5.6694583 7.8522337,6.1288351 8.2389145,6.5882119 8.0689912,6.7655737 c -0.093458,0.097549 -0.1927593,0.1773618 -0.2206698,0.1773618 -0.02791,0 -0.2375976,-0.1775658 -0.4659713,-0.3945908 z"
       id="path36"
       transform="scale(0.26458333)" />
    <path
       style="fill:#550000;stroke-width:0.0631345"
       d="M 5.3348765,4.5524399 3.8519157,3.1116296 4.0180402,2.896492 C 4.1094087,2.7781664 4.2795566,2.5731866 4.3961466,2.4409814 L 4.6081285,2.2006083 5.9023865,3.7917876 C 6.6142284,4.6669361 7.2208873,5.4241658 7.2505176,5.47452 7.2882499,5.5386432 7.2419791,5.6304657 7.09608,5.7809954 6.981509,5.8992025 6.8720345,5.9953174 6.8528032,5.9945839 6.8335719,5.9938504 6.1505049,5.3448856 5.3348765,4.5524399 Z"
       id="path38"
       transform="scale(0.26458333)" />
    <path
       style="fill:#550000;stroke-width:0.0631345"
       d=""
       id="path40"
       transform="scale(0.26458333)" />
    <path
       style="fill:#550000;stroke-width:0.0631345"
       d="M 5.1090872,14.479181 C 3.6973348,13.203184 3.0470793,12.563828 3.0784739,12.482605 3.0951686,12.439412 3.9007392,11.54136 4.8686308,10.486933 5.8365223,9.432507 6.636371,8.5492763 6.6460721,8.5241987 6.6557733,8.499121 6.7905038,8.3424476 6.9454733,8.1760363 L 7.227236,7.8734704 7.0541039,7.66523 C 6.9071128,7.4884318 6.1261227,6.7321214 2.8490368,3.5930457 L 2.4157703,3.1780257 3.5004847,1.9342643 C 4.0970775,1.2501956 4.6106343,0.70622296 4.641722,0.72543622 4.6728098,0.74464948 5.5633429,1.8034177 6.6206846,3.0782545 7.6780263,4.3530912 8.641155,5.5090734 8.7609711,5.6471039 l 0.217847,0.2509644 0.4579526,-0.440368 C 9.6886447,5.2154978 10.704375,4.1579134 11.69395,3.1075126 c 0.989575,-1.0504008 1.832074,-1.9098197 1.872221,-1.9098197 0.04015,0 0.178455,0.08693 0.307353,0.1931785 L 14.107883,1.5840499 13.92445,1.9474262 C 13.747902,2.297167 12.382058,4.621728 11.121831,6.7172668 l -0.604666,1.0054547 0.107507,0.1848321 c 0.05913,0.1016579 0.730358,0.9844991 1.491621,1.961869 2.335447,2.9984304 2.814332,3.6764554 2.814332,3.9846454 0,0.15914 -0.239449,0.349339 -0.439797,0.349339 -0.229358,0 -0.664388,-0.358163 -2.874766,-2.366812 C 9.5863131,9.9920911 9.3935867,9.8280524 9.3140233,9.8772254 9.1996444,9.9479152 8.8026923,10.57027 7.4204584,12.846014 6.6822897,14.061354 6.0439952,15.092075 6.002026,15.136504 5.9409977,15.20111 5.7622044,15.069494 5.1090872,14.479181 Z M 5.0129718,13.102553 4.3445279,12.455137 5.0687535,11.67199 C 7.734956,8.7888738 10.289453,6.0687912 10.310805,6.0901428 10.324675,6.1040125 9.3994494,7.6865789 8.2547485,9.6069566 5.7547155,13.801073 5.8157852,13.695909 5.8565748,13.736698 5.8993023,13.779426 6.5301282,12.758966 8.8074217,8.9632406 10.594947,5.9838465 10.953149,5.3655664 10.953149,5.2595725 c 0,-0.099851 -1.7245499,1.7000678 -4.5792836,4.7794125 -1.9864551,2.142749 -2.1175815,2.297392 -2.092539,2.467808 0.02313,0.157405 1.2934487,1.351213 1.3629199,1.280833 0.020443,-0.02071 -0.2636304,-0.328994 -0.6312745,-0.685073 z m 6.4452532,-2.683332 c 0,-0.09142 -0.744148,-1.0576356 -1.117738,-1.4512933 C 10.01967,8.6298783 10.002759,8.620833 9.9116138,8.738553 c -0.052187,0.067404 -0.094886,0.1575579 -0.094886,0.200343 0,0.1230485 0.2950752,0.4425251 0.9347422,1.0120415 0.568295,0.5059715 0.706755,0.5977135 0.706755,0.4682835 z M 8.1704087,6.8972559 C 8.304284,6.734842 8.3521664,6.6226235 8.3253071,6.5342324 8.2800748,6.3853779 7.5107739,5.4179706 5.9894086,3.5968052 4.7487832,2.1117024 4.6249444,1.9843383 4.4948658,2.0597183 4.3762231,2.1284713 3.786483,2.8217505 3.6844274,3.0124432 3.5894441,3.1899211 3.6290348,3.232992 5.5235793,5.0132598 7.2012834,6.5897669 7.81029,7.1323391 7.9021256,7.1323391 c 0.040979,0 0.1617066,-0.1057876 0.2682831,-0.2350832 z"
       id="path42"
       transform="scale(0.26458333)" />
    <path
       style="fill:#550000;stroke-width:0.0631345"
       d=""
       id="path44"
       transform="scale(0.26458333)" />
    <path
       style="fill:#550000;stroke-width:0.0631345"
       d=""
       id="path46"
       transform="scale(0.26458333)" />
    <path
       style="fill:#550000;stroke-width:0.0631345"
       d=""
       id="path48"
       transform="scale(0.26458333)" />
  </g>
</svg>
